<svg width="24" height="24" viewBox="0 0 24 24" fill="none" xmlns="http://www.w3.org/2000/svg">
<path fill-rule="evenodd" clip-rule="evenodd" d="M0 6.66667C0 2.98533 2.98533 0 6.66667 0H17.3333C21.0147 0 24 2.98533 24 6.66667V17.3333C24 21.0147 21.0147 24 17.3333 24H6.66667C2.98533 24 0 21.0147 0 17.3333V6.66667ZM21.3333 4C21.3333 3.264 20.736 2.66667 20 2.66667C19.264 2.66667 18.6667 3.264 18.6667 4C18.6667 4.736 19.264 5.33333 20 5.33333C20.736 5.33333 21.3333 4.736 21.3333 4ZM12 5.33333C15.6813 5.33333 18.6667 8.31867 18.6667 12C18.6667 15.6813 15.6813 18.6667 12 18.6667C8.31867 18.6667 5.33333 15.6813 5.33333 12C5.33333 8.31867 8.31867 5.33333 12 5.33333ZM8 12C8 9.79086 9.79086 8 12 8C14.2091 8 16 9.79086 16 12C16 14.2091 14.2091 16 12 16C9.79086 16 8 14.2091 8 12Z" fill="#212321"/>
</svg>
