<svg width="24" height="24" viewBox="0 0 24 24" fill="none" xmlns="http://www.w3.org/2000/svg">
<path fill-rule="evenodd" clip-rule="evenodd" d="M2.19922 0H21.8008C23 0 24 1 24 2.19922V21.8008C24 23 23 24 21.8008 24H2.19922C1 24 0 23 0 21.8008V2.19922C0 1 1 0 2.19922 0ZM7 20V9H3V20H7ZM5 7.69922C3.80078 7.69922 3 6.89844 3 5.89844C3 4.80078 3.80078 4 5 4C6.19922 4 7 4.80078 7 5.80078C7 6.89844 6.19922 7.69922 5 7.69922ZM17 20H21V14C21 10.5 19.3984 9 17.5 9C15.6016 9 14.6016 9.69922 14 10.6016V9H10V20H14V14C14 12.1992 15.3008 12 15.6016 12C15.8984 12 17 12.3984 17 14V20Z" fill="#212321"/>
</svg>
