<svg width="31" height="24" viewBox="0 0 31 24" fill="none" xmlns="http://www.w3.org/2000/svg">
<path fill-rule="evenodd" clip-rule="evenodd" d="M26.8981 0.899414C28.4827 1.27441 29.8481 2.47559 30.1347 4.125C30.4943 6 30.8539 8.625 31 12C30.927 15.2988 30.5673 18 30.2808 19.875C29.9914 21.6006 28.626 22.7256 27.0442 23.1006C24.5269 23.625 20.2115 24 15.4635 24C10.7154 24 6.40004 23.625 3.88273 23.1006C2.30098 22.7256 0.935563 21.5244 0.646185 19.875C0.286569 18 0 15.375 0 12C0 8.625 0.286569 6 0.575947 4.125C0.862516 2.39941 2.23074 1.27441 3.81249 0.899414C6.18651 0.375 10.6452 0 15.3904 0C20.1385 0 24.5269 0.375 26.8981 0.899414ZM20.2818 12L11.5077 6.75V17.25L20.2818 12Z" fill="#212321"/>
</svg>
