<svg width="13" height="12" viewBox="0 0 13 12" fill="none" xmlns="http://www.w3.org/2000/svg">
<path d="M0.703125 5.3125H9.67188L6.29688 2.0625C6.15104 1.92708 6.07812 1.76562 6.07812 1.57812C6.07812 1.39062 6.14062 1.22917 6.26562 1.09375C6.40104 0.947917 6.5625 0.875 6.75 0.875C6.9375 0.875 7.10417 0.9375 7.25 1.0625L11.8438 5.5C11.9896 5.63542 12.0625 5.80208 12.0625 6C12.0625 6.1875 11.9896 6.34896 11.8438 6.48438L7.21875 10.9375C7.08333 11.0625 6.92708 11.125 6.75 11.125C6.55208 11.125 6.38542 11.0521 6.25 10.9062C6.11458 10.7708 6.04688 10.6094 6.04688 10.4219C6.05729 10.2344 6.13021 10.0729 6.26562 9.9375L9.64062 6.6875H0.6875C0.510417 6.6875 0.354167 6.625 0.21875 6.5C0.0833333 6.375 0.0104167 6.22396 0 6.04688C-0.0104167 5.84896 0.0520833 5.67708 0.1875 5.53125C0.333333 5.38542 0.505208 5.3125 0.703125 5.3125Z" fill="#FF6A6A"/>
</svg>
