<svg width="19" height="16" viewBox="0 0 19 16" fill="none" xmlns="http://www.w3.org/2000/svg">
<path d="M17.2594 6.96875H3.80627L8.86877 2.09375C9.08752 1.89063 9.1969 1.64844 9.1969 1.36719C9.1969 1.08594 9.10315 0.84375 8.91565 0.640625C8.71252 0.421875 8.47034 0.3125 8.18909 0.3125C7.90784 0.3125 7.65784 0.40625 7.43909 0.59375L0.548462 7.25C0.329712 7.45312 0.220337 7.70312 0.220337 8C0.220337 8.28125 0.329712 8.52344 0.548462 8.72656L7.48596 15.4062C7.68909 15.5938 7.92346 15.6875 8.18909 15.6875C8.48596 15.6875 8.73596 15.5781 8.93909 15.3594C9.14221 15.1562 9.24377 14.9141 9.24377 14.6328C9.22815 14.3516 9.11877 14.1094 8.91565 13.9062L3.85315 9.03125H17.2828C17.5485 9.03125 17.7828 8.9375 17.986 8.75C18.1891 8.5625 18.2985 8.33594 18.3141 8.07031C18.3297 7.77344 18.236 7.51562 18.0328 7.29688C17.8141 7.07812 17.5563 6.96875 17.2594 6.96875Z" fill="black"/>
</svg>
