<svg width="19" height="16" viewBox="0 0 19 16" fill="none" xmlns="http://www.w3.org/2000/svg">
<path d="M1.36877 6.96924H14.8219L9.7594 2.09424C9.54065 1.89111 9.43127 1.64893 9.43127 1.36768C9.43127 1.08643 9.52502 0.844238 9.71252 0.641113C9.91565 0.422363 10.1578 0.312988 10.4391 0.312988C10.7203 0.312988 10.9703 0.406738 11.1891 0.594238L18.0797 7.25049C18.2985 7.45361 18.4078 7.70361 18.4078 8.00049C18.4078 8.28174 18.2985 8.52393 18.0797 8.72705L11.1422 15.4067C10.9391 15.5942 10.7047 15.688 10.4391 15.688C10.1422 15.688 9.89221 15.5786 9.68909 15.3599C9.48596 15.1567 9.3844 14.9146 9.3844 14.6333C9.40002 14.3521 9.5094 14.1099 9.71252 13.9067L14.775 9.03174H1.34534C1.07971 9.03174 0.845337 8.93799 0.642212 8.75049C0.439087 8.56299 0.329712 8.33643 0.314087 8.0708C0.298462 7.77393 0.392212 7.51611 0.595337 7.29736C0.814087 7.07861 1.0719 6.96924 1.36877 6.96924Z" fill="black"/>
</svg>
