<svg width="119" height="20" viewBox="0 0 119 20" fill="none" xmlns="http://www.w3.org/2000/svg">
<path fill-rule="evenodd" clip-rule="evenodd" d="M109.81 19.4456C110.681 19.4456 111.498 19.373 112.26 19.2278C113.022 19.0826 113.798 18.7945 114.587 18.3635C115.377 17.9325 116.055 17.3791 116.622 16.7031C117.189 16.0271 117.65 15.1129 118.004 13.9606C118.358 12.8083 118.534 11.479 118.534 9.97278C118.534 8.46657 118.358 7.1373 118.004 5.98496C117.65 4.83262 117.189 3.91846 116.622 3.24248C116.055 2.5665 115.377 2.01301 114.587 1.58202C113.798 1.15103 113.022 0.862942 112.26 0.717765C111.498 0.572588 110.681 0.5 109.81 0.5C108.939 0.5 108.123 0.572588 107.36 0.717765C106.598 0.862942 105.822 1.15103 105.033 1.58202C104.244 2.01301 103.565 2.5665 102.998 3.24248C102.431 3.91846 101.971 4.83262 101.617 5.98496C101.263 7.1373 101.086 8.46657 101.086 9.97278C101.086 11.479 101.263 12.8083 101.617 13.9606C101.971 15.1129 102.431 16.0271 102.998 16.7031C103.565 17.3791 104.244 17.9325 105.033 18.3635C105.822 18.7945 106.598 19.0826 107.36 19.2278C108.123 19.373 108.939 19.4456 109.81 19.4456ZM16.6554 19.5C18.5155 19.5 20.0966 18.9896 21.3986 17.9688C22.7007 16.9481 23.3517 15.6211 23.3517 13.9878C23.3517 12.8173 23.143 11.8238 22.7256 11.0072C22.3083 10.1905 21.7775 9.58715 21.1332 9.19699C20.489 8.80683 19.8017 8.47564 19.0713 8.20344C18.3409 7.93123 17.6535 7.73615 17.0093 7.6182C16.3651 7.50024 15.8343 7.3233 15.4169 7.08739C14.9995 6.85148 14.7908 6.55659 14.7908 6.20272C14.7908 5.64924 15.0744 5.25227 15.6415 5.01182C16.2086 4.77137 16.8551 4.65115 17.5809 4.65115C18.9511 4.65115 20.3892 5.09575 21.8954 5.98496V1.80659C20.3257 0.953677 18.6562 0.527221 16.8868 0.527221C14.936 0.527221 13.3005 1.01039 11.9803 1.97672C10.6601 2.94305 10 4.38348 10 6.29799C10 7.24164 10.1588 8.0628 10.4764 8.76146C10.7939 9.46012 11.2022 10 11.7013 10.3811C12.2003 10.7622 12.7561 11.0843 13.3686 11.3474C13.981 11.6106 14.5867 11.8147 15.1855 11.9599L16.846 12.3818C17.3541 12.5179 17.767 12.7039 18.0845 12.9398C18.4021 13.1757 18.5609 13.4616 18.5609 13.7973C18.5609 14.2963 18.3046 14.6797 17.7919 14.9473C17.2793 15.215 16.6691 15.3489 15.9613 15.3489H15.9205C13.8336 15.3489 11.9327 14.6366 10.2178 13.212V17.6898C11.9599 18.8966 14.1058 19.5 16.6554 19.5ZM37.347 19.2822V5.03224H42.7503V0.690544H27.2073V5.03224H32.5562V19.2822H37.347ZM50.8659 14.8181L49.4233 19.2822H44.2649L51.6553 0.690544H56.174L63.5508 19.2822H58.3924L56.9498 14.8181H50.8659ZM55.7793 11.2794H52.0092L53.9147 5.5086L55.7793 11.2794ZM81.9014 16.914C80.3951 18.4928 78.2039 19.2822 75.3276 19.2822H68.6313V0.690544H75.3276C78.2039 0.690544 80.3951 1.47994 81.9014 3.05874C83.4076 4.63754 84.1607 6.95129 84.1607 10C84.1607 13.0306 83.4076 15.3352 81.9014 16.914ZM75.3276 15.3489H73.4221V4.5967H75.3276C78.0224 4.5967 79.3698 6.3978 79.3698 10C79.3698 13.5659 78.0224 15.3489 75.3276 15.3489ZM95.08 0.690544V19.2822H90.2892V0.690544H95.08ZM106.952 14.1784C107.669 14.9587 108.622 15.3489 109.81 15.3489C110.999 15.3489 111.952 14.9587 112.668 14.1784C113.385 13.398 113.744 11.9962 113.744 9.97278C113.744 7.94938 113.385 6.54752 112.668 5.76719C111.952 4.98687 110.999 4.5967 109.81 4.5967C108.622 4.5967 107.669 4.98687 106.952 5.76719C106.235 6.54752 105.877 7.94938 105.877 9.97278C105.877 11.9962 106.235 13.398 106.952 14.1784Z" fill="#FBDDDD"/>
<path fill-rule="evenodd" clip-rule="evenodd" d="M99.8103 19.4456C100.681 19.4456 101.498 19.373 102.26 19.2278C103.022 19.0826 103.798 18.7945 104.587 18.3635C105.377 17.9325 106.055 17.3791 106.622 16.7031C107.189 16.0271 107.65 15.1129 108.004 13.9606C108.358 12.8083 108.534 11.479 108.534 9.97278C108.534 8.46657 108.358 7.1373 108.004 5.98496C107.65 4.83262 107.189 3.91846 106.622 3.24248C106.055 2.5665 105.377 2.01301 104.587 1.58202C103.798 1.15103 103.022 0.862942 102.26 0.717765C101.498 0.572588 100.681 0.5 99.8103 0.5C98.9392 0.5 98.1226 0.572588 97.3604 0.717765C96.5982 0.862942 95.8224 1.15103 95.0331 1.58202C94.2437 2.01301 93.5654 2.5665 92.9983 3.24248C92.4312 3.91846 91.9707 4.83262 91.6169 5.98496C91.263 7.1373 91.0861 8.46657 91.0861 9.97278C91.0861 11.479 91.263 12.8083 91.6169 13.9606C91.9707 15.1129 92.4312 16.0271 92.9983 16.7031C93.5654 17.3791 94.2437 17.9325 95.0331 18.3635C95.8224 18.7945 96.5982 19.0826 97.3604 19.2278C98.1226 19.373 98.9392 19.4456 99.8103 19.4456ZM6.65544 19.5C8.51552 19.5 10.0966 18.9896 11.3986 17.9688C12.7007 16.9481 13.3517 15.6211 13.3517 13.9878C13.3517 12.8173 13.143 11.8238 12.7256 11.0072C12.3083 10.1905 11.7775 9.58715 11.1332 9.19699C10.489 8.80683 9.80169 8.47564 9.07127 8.20344C8.34085 7.93123 7.65353 7.73615 7.00931 7.6182C6.36509 7.50024 5.83429 7.3233 5.41691 7.08739C4.99952 6.85148 4.79083 6.55659 4.79083 6.20272C4.79083 5.64924 5.07438 5.25227 5.64148 5.01182C6.20857 4.77137 6.85506 4.65115 7.58095 4.65115C8.95105 4.65115 10.3892 5.09575 11.8954 5.98496V1.80659C10.3257 0.953677 8.65616 0.527221 6.88682 0.527221C4.93601 0.527221 3.3005 1.01039 1.9803 1.97672C0.6601 2.94305 0 4.38348 0 6.29799C0 7.24164 0.158787 8.0628 0.476361 8.76146C0.793935 9.46012 1.20224 10 1.70129 10.3811C2.20033 10.7622 2.75609 11.0843 3.36855 11.3474C3.98102 11.6106 4.58668 11.8147 5.18553 11.9599L6.84599 12.3818C7.35411 12.5179 7.76695 12.7039 8.08453 12.9398C8.4021 13.1757 8.56089 13.4616 8.56089 13.7973C8.56089 14.2963 8.30456 14.6797 7.79191 14.9473C7.27925 15.215 6.66905 15.3489 5.96132 15.3489H5.92049C3.83357 15.3489 1.93266 14.6366 0.217765 13.212V17.6898C1.95989 18.8966 4.10578 19.5 6.65544 19.5ZM27.347 19.2822V5.03224H32.7503V0.690544H17.2073V5.03224H22.5562V19.2822H27.347ZM40.8659 14.8181L39.4233 19.2822H34.2649L41.6553 0.690544H46.174L53.5508 19.2822H48.3924L46.9498 14.8181H40.8659ZM45.7793 11.2794H42.0092L43.9147 5.5086L45.7793 11.2794ZM71.9014 16.914C70.3951 18.4928 68.2039 19.2822 65.3276 19.2822H58.6313V0.690544H65.3276C68.2039 0.690544 70.3951 1.47994 71.9014 3.05874C73.4076 4.63754 74.1607 6.95129 74.1607 10C74.1607 13.0306 73.4076 15.3352 71.9014 16.914ZM65.3276 15.3489H63.4221V4.5967H65.3276C68.0224 4.5967 69.3698 6.3978 69.3698 10C69.3698 13.5659 68.0224 15.3489 65.3276 15.3489ZM85.08 0.690544V19.2822H80.2892V0.690544H85.08ZM96.9521 14.1784C97.6689 14.9587 98.6216 15.3489 99.8103 15.3489C100.999 15.3489 101.952 14.9587 102.668 14.1784C103.385 13.398 103.744 11.9962 103.744 9.97278C103.744 7.94938 103.385 6.54752 102.668 5.76719C101.952 4.98687 100.999 4.5967 99.8103 4.5967C98.6216 4.5967 97.6689 4.98687 96.9521 5.76719C96.2353 6.54752 95.8769 7.94938 95.8769 9.97278C95.8769 11.9962 96.2353 13.398 96.9521 14.1784Z" fill="#E4EEF9"/>
<path fill-rule="evenodd" clip-rule="evenodd" d="M103.81 19.4456C104.681 19.4456 105.498 19.373 106.26 19.2278C107.022 19.0826 107.798 18.7945 108.587 18.3635C109.377 17.9325 110.055 17.3791 110.622 16.7031C111.189 16.0271 111.65 15.1129 112.004 13.9606C112.358 12.8083 112.534 11.479 112.534 9.97278C112.534 8.46657 112.358 7.1373 112.004 5.98496C111.65 4.83262 111.189 3.91846 110.622 3.24248C110.055 2.5665 109.377 2.01301 108.587 1.58202C107.798 1.15103 107.022 0.862942 106.26 0.717765C105.498 0.572588 104.681 0.5 103.81 0.5C102.939 0.5 102.123 0.572588 101.36 0.717765C100.598 0.862942 99.8224 1.15103 99.0331 1.58202C98.2437 2.01301 97.5654 2.5665 96.9983 3.24248C96.4312 3.91846 95.9707 4.83262 95.6169 5.98496C95.263 7.1373 95.0861 8.46657 95.0861 9.97278C95.0861 11.479 95.263 12.8083 95.6169 13.9606C95.9707 15.1129 96.4312 16.0271 96.9983 16.7031C97.5654 17.3791 98.2437 17.9325 99.0331 18.3635C99.8224 18.7945 100.598 19.0826 101.36 19.2278C102.123 19.373 102.939 19.4456 103.81 19.4456ZM10.6554 19.5C12.5155 19.5 14.0966 18.9896 15.3986 17.9688C16.7007 16.9481 17.3517 15.6211 17.3517 13.9878C17.3517 12.8173 17.143 11.8238 16.7256 11.0072C16.3083 10.1905 15.7775 9.58715 15.1332 9.19699C14.489 8.80683 13.8017 8.47564 13.0713 8.20344C12.3409 7.93123 11.6535 7.73615 11.0093 7.6182C10.3651 7.50024 9.83429 7.3233 9.41691 7.08739C8.99952 6.85148 8.79083 6.55659 8.79083 6.20272C8.79083 5.64924 9.07438 5.25227 9.64148 5.01182C10.2086 4.77137 10.8551 4.65115 11.5809 4.65115C12.9511 4.65115 14.3892 5.09575 15.8954 5.98496V1.80659C14.3257 0.953677 12.6562 0.527221 10.8868 0.527221C8.93601 0.527221 7.3005 1.01039 5.9803 1.97672C4.6601 2.94305 4 4.38348 4 6.29799C4 7.24164 4.15879 8.0628 4.47636 8.76146C4.79394 9.46012 5.20224 10 5.70129 10.3811C6.20033 10.7622 6.75609 11.0843 7.36855 11.3474C7.98102 11.6106 8.58668 11.8147 9.18553 11.9599L10.846 12.3818C11.3541 12.5179 11.767 12.7039 12.0845 12.9398C12.4021 13.1757 12.5609 13.4616 12.5609 13.7973C12.5609 14.2963 12.3046 14.6797 11.7919 14.9473C11.2793 15.215 10.6691 15.3489 9.96132 15.3489H9.92049C7.83357 15.3489 5.93266 14.6366 4.21777 13.212V17.6898C5.95989 18.8966 8.10578 19.5 10.6554 19.5ZM31.347 19.2822V5.03224H36.7503V0.690544H21.2073V5.03224H26.5562V19.2822H31.347ZM44.8659 14.8181L43.4233 19.2822H38.2649L45.6553 0.690544H50.174L57.5508 19.2822H52.3924L50.9498 14.8181H44.8659ZM49.7793 11.2794H46.0092L47.9147 5.5086L49.7793 11.2794ZM75.9014 16.914C74.3951 18.4928 72.2039 19.2822 69.3276 19.2822H62.6313V0.690544H69.3276C72.2039 0.690544 74.3951 1.47994 75.9014 3.05874C77.4076 4.63754 78.1607 6.95129 78.1607 10C78.1607 13.0306 77.4076 15.3352 75.9014 16.914ZM69.3276 15.3489H67.4221V4.5967H69.3276C72.0224 4.5967 73.3698 6.3978 73.3698 10C73.3698 13.5659 72.0224 15.3489 69.3276 15.3489ZM89.08 0.690544V19.2822H84.2892V0.690544H89.08ZM100.952 14.1784C101.669 14.9587 102.622 15.3489 103.81 15.3489C104.999 15.3489 105.952 14.9587 106.668 14.1784C107.385 13.398 107.744 11.9962 107.744 9.97278C107.744 7.94938 107.385 6.54752 106.668 5.76719C105.952 4.98687 104.999 4.5967 103.81 4.5967C102.622 4.5967 101.669 4.98687 100.952 5.76719C100.235 6.54752 99.8769 7.94938 99.8769 9.97278C99.8769 11.9962 100.235 13.398 100.952 14.1784Z" fill="black"/>
</svg>
