<svg width="72" height="72" viewBox="0 0 72 72" fill="none" xmlns="http://www.w3.org/2000/svg">
<path opacity="0.0381557" d="M36 72C55.8823 72 72 55.8823 72 36C72 16.1177 55.8823 0 36 0C16.1177 0 0 16.1177 0 36C0 55.8823 16.1177 72 36 72Z" fill="black"/>
<path fill-rule="evenodd" clip-rule="evenodd" d="M54 40V50C54 50.5523 53.5523 51 53 51H20C19.4477 51 19 50.5523 19 50V29.2161L30.4225 41.1607C33.667 44.5535 39.0475 44.6737 42.4403 41.4292C42.5311 41.3424 42.6199 41.2536 42.7068 41.1628L46.2623 37.4474C45.4561 36.8494 44.7215 36.1602 44.0739 35.3952L40.5393 39.0887C40.4831 39.1474 40.4256 39.2049 40.3669 39.2611C38.1716 41.3604 34.69 41.2826 32.5907 39.0873L21.0318 27H41C41 25.9675 41.1204 24.963 41.3479 24H20C17.7909 24 16 25.7909 16 28V50C16 52.2091 17.7909 54 20 54H53C55.2091 54 57 52.2091 57 50V39.6521C56.037 39.8796 55.0325 40 54 40Z" fill="black"/>
<path d="M54 37C59.5228 37 64 32.5228 64 27C64 21.4772 59.5228 17 54 17C48.4772 17 44 21.4772 44 27C44 32.5228 48.4772 37 54 37Z" fill="#647DFF"/>
<path fill-rule="evenodd" clip-rule="evenodd" d="M52.4604 23.1122C51.6115 22.672 50.6882 23.56 51.095 24.4254L52.3578 27.1114L51.095 29.7974C50.6882 30.6628 51.6115 31.5508 52.4604 31.1106L58.4604 27.9992C59.1799 27.626 59.1799 26.5968 58.4604 26.2237L52.4604 23.1122ZM53.4628 27.1114L52 24L58 27.1114L52 30.2229L53.4628 27.1114Z" fill="white"/>
</svg>
