<svg width="72" height="72" viewBox="0 0 72 72" fill="none" xmlns="http://www.w3.org/2000/svg">
<path opacity="0.0381557" d="M36 72C55.8823 72 72 55.8823 72 36C72 16.1177 55.8823 0 36 0C16.1177 0 0 16.1177 0 36C0 55.8823 16.1177 72 36 72Z" fill="black"/>
<path fill-rule="evenodd" clip-rule="evenodd" d="M41.627 22H28.1304C26.4976 22 25.1739 23.3237 25.1739 24.9565V25.7711H27.3913V24.9565C27.3913 24.5483 27.7222 24.2174 28.1304 24.2174H41.1212C41.2257 23.4552 41.3963 22.7141 41.627 22ZM44.3913 34.7564V47.1304C44.3913 47.5386 44.0604 47.8696 43.6522 47.8696H43.3408V50.087H43.6522C45.285 50.087 46.6087 48.7633 46.6087 47.1304V36.6958C45.7978 36.1344 45.0539 35.4831 44.3913 34.7564ZM38.4783 27.913H22.9565C21.3237 27.913 20 29.2367 20 30.8696V53.0435C20 54.6763 21.3237 56 22.9565 56H38.4783C40.1111 56 41.4348 54.6763 41.4348 53.0435V30.8696C41.4348 29.2367 40.1111 27.913 38.4783 27.913ZM22.2174 30.8696C22.2174 30.4614 22.5483 30.1304 22.9565 30.1304H38.4783C38.8865 30.1304 39.2174 30.4614 39.2174 30.8696V53.0435C39.2174 53.4517 38.8865 53.7826 38.4783 53.7826H22.9565C22.5483 53.7826 22.2174 53.4517 22.2174 53.0435V30.8696Z" fill="black"/>
<path d="M54 36C59.5228 36 64 31.5228 64 26C64 20.4772 59.5228 16 54 16C48.4772 16 44 20.4772 44 26C44 31.5228 48.4772 36 54 36Z" fill="#647DFF"/>
<path fill-rule="evenodd" clip-rule="evenodd" d="M55.0208 31.9504C54.9373 32.0339 54.8329 32.0756 54.7077 32.0756C54.5824 32.0756 54.4759 32.0318 54.3883 31.9441C54.3006 31.8564 54.2567 31.75 54.2567 31.6247C54.2567 31.4994 54.3027 31.3951 54.3945 31.3115C55.0709 30.6268 55.5866 29.8418 55.9415 28.9567C56.2964 28.0715 56.4738 27.178 56.4738 26.2761C56.4738 25.3742 56.2964 24.4807 55.9415 23.5955C55.5866 22.7104 55.0709 21.9254 54.3945 21.2406C54.3027 21.1571 54.2567 21.0528 54.2567 20.9275C54.2567 20.8022 54.3006 20.6958 54.3883 20.6081C54.4759 20.5204 54.5824 20.4766 54.7077 20.4766C54.8329 20.4766 54.9373 20.5183 55.0208 20.6018C55.7974 21.3784 56.3841 22.2657 56.7807 23.2636C57.1774 24.2615 57.3757 25.2657 57.3757 26.2761C57.3757 27.2865 57.1774 28.2928 56.7807 29.2949C56.3841 30.2969 55.7974 31.1821 55.0208 31.9504ZM53.0918 22.3054C53.81 23.0235 54.2964 23.8648 54.5511 24.8293C54.8058 25.7939 54.8058 26.7583 54.5511 27.7229C54.2964 28.6874 53.81 29.5287 53.0918 30.2468C53 30.3303 52.8914 30.3721 52.7661 30.3721C52.6409 30.3721 52.5344 30.3283 52.4467 30.2406C52.359 30.1529 52.3152 30.0464 52.3152 29.9212C52.3152 29.7959 52.3611 29.6915 52.453 29.608C52.9039 29.1571 53.2463 28.6373 53.4801 28.0485C53.7139 27.4598 53.8308 26.869 53.8308 26.2761C53.8308 25.6832 53.7139 25.0924 53.4801 24.5037C53.2463 23.9149 52.9039 23.3951 52.453 22.9442C52.3611 22.8607 52.3152 22.7563 52.3152 22.631C52.3152 22.5058 52.359 22.3993 52.4467 22.3116C52.5344 22.2239 52.6409 22.1801 52.7661 22.1801C52.8914 22.1801 53 22.2219 53.0918 22.3054ZM51.0375 28.5558C51.0292 28.5558 51.0167 28.5684 51 28.5934C50.9081 28.6769 50.8016 28.7187 50.6806 28.7187C50.5595 28.7187 50.453 28.6748 50.3611 28.5871C50.2693 28.4995 50.2234 28.393 50.2234 28.2677C50.2234 28.1425 50.2693 28.0381 50.3611 27.9546L50.3987 27.917C50.8497 27.4661 51.0751 26.9233 51.0751 26.2886C51.0751 25.654 50.8497 25.1112 50.3987 24.6602C50.3069 24.5684 50.2609 24.4598 50.2609 24.3346C50.2609 24.2093 50.3048 24.1028 50.3925 24.0152C50.4801 23.9275 50.5866 23.8836 50.7119 23.8836C50.8371 23.8836 50.9457 23.9296 51.0375 24.0214C51.6639 24.6477 51.977 25.4035 51.977 26.2886C51.977 27.1738 51.6639 27.9295 51.0375 28.5558Z" fill="white"/>
</svg>
