<svg width="72" height="72" viewBox="0 0 72 72" fill="none" xmlns="http://www.w3.org/2000/svg">
<path opacity="0.0381557" d="M36 72C55.8823 72 72 55.8823 72 36C72 16.1177 55.8823 0 36 0C16.1177 0 0 16.1177 0 36C0 55.8823 16.1177 72 36 72Z" fill="black"/>
<path fill-rule="evenodd" clip-rule="evenodd" d="M52.4603 23.1122C51.6114 22.672 50.6882 23.56 51.095 24.4254L52.3578 27.1114L51.095 29.7974C50.6882 30.6628 51.6114 31.5508 52.4603 31.1106L58.4603 27.9992C59.1799 27.626 59.1799 26.5968 58.4603 26.2237L52.4603 23.1122ZM53.4628 27.1114L52 24L58 27.1114L52 30.2229L53.4628 27.1114Z" fill="white"/>
<path fill-rule="evenodd" clip-rule="evenodd" d="M41.0012 25.8207C38.9031 25.9829 37.0895 26.8285 35.5603 28.3578C33.8497 30.0684 32.9944 32.1349 32.9944 34.5574C32.9944 36.9799 33.8444 39.0518 35.5444 40.7731C36.5219 41.7506 37.6587 42.4518 38.955 42.8768C38.4663 43.0043 38.02 43.1637 37.6163 43.3549C36.3412 43.8862 35.215 44.6406 34.2375 45.6181C33.26 46.5956 32.5056 47.7218 31.9744 48.9968C31.4219 50.3143 31.1456 51.6956 31.1456 53.1406C31.1456 53.4593 31.2572 53.7302 31.4803 53.9534C31.7034 54.1765 31.9744 54.2881 32.2931 54.2881C32.6119 54.2881 32.8828 54.1765 33.1059 53.9534C33.3291 53.7302 33.4406 53.4593 33.4406 53.1406C33.4406 50.8456 34.2534 48.8799 35.8791 47.2437C37.5047 45.6074 39.4703 44.7893 41.7759 44.7893C44.0816 44.7893 46.0472 45.6021 47.6728 47.2278C49.2985 48.8534 50.1113 50.8243 50.1113 53.1406C50.1113 53.4593 50.2228 53.7302 50.4459 53.9534C50.6691 54.1765 50.94 54.2881 51.2588 54.2881C51.5775 54.2881 51.8484 54.1765 52.0716 53.9534C52.2947 53.7302 52.4063 53.4593 52.4063 53.1406C52.385 51.6956 52.0981 50.3143 51.5456 48.9968C51.0144 47.7218 50.26 46.5956 49.2825 45.6181C48.305 44.6406 47.1788 43.8862 45.9038 43.3549C45.4788 43.1637 45.0325 43.0043 44.565 42.8768C45.8613 42.4518 46.9981 41.7506 47.9756 40.7731C48.7351 40.0136 49.327 39.1858 49.7514 38.2898C49.0109 38.0339 48.3007 37.7129 47.6277 37.3337C47.3167 37.9868 46.8855 38.5913 46.3341 39.1474C45.0697 40.4224 43.545 41.0599 41.76 41.0599C39.975 41.0599 38.445 40.4224 37.17 39.1474C35.9162 37.8724 35.2894 36.3424 35.2894 34.5574C35.2894 32.7724 35.9216 31.2478 37.1859 29.9834C38.3088 28.8605 39.637 28.2362 41.1705 28.1106C41.0583 27.4236 41 26.7186 41 25.9999C41 25.9401 41.0004 25.8803 41.0012 25.8207Z" fill="black"/>
<path fill-rule="evenodd" clip-rule="evenodd" d="M32.1906 40.1306C31.6891 40.0419 31.169 39.9975 30.6303 39.9975C28.3247 39.9975 26.3591 40.8156 24.7334 42.4519C23.1078 44.0881 22.295 46.0537 22.295 48.3487C22.295 48.6675 22.1834 48.9384 21.9603 49.1616C21.7372 49.3847 21.4663 49.4963 21.1475 49.4963C20.8287 49.4963 20.5578 49.3847 20.3347 49.1616C20.1116 48.9384 20 48.6675 20 48.3487C20 46.9037 20.2762 45.5225 20.8288 44.205C21.36 42.93 22.1144 41.8038 23.0919 40.8263C24.0694 39.8487 25.1956 39.0944 26.4706 38.5631C26.8744 38.3719 27.3206 38.2125 27.8094 38.085C26.5131 37.66 25.3763 36.9588 24.3987 35.9812C22.6987 34.26 21.8487 32.1881 21.8487 29.7656C21.8487 27.3431 22.7041 25.2766 24.4147 23.5659C26.1253 21.8553 28.1919 21 30.6144 21C33.0369 21 35.1087 21.8553 36.83 23.5659C36.9366 23.6718 37.0398 23.7791 37.1398 23.8877L35.0189 25.0273C33.7885 23.8724 32.3203 23.295 30.6144 23.295C28.8294 23.295 27.3047 23.9272 26.0403 25.1916C24.7759 26.4559 24.1438 27.9806 24.1438 29.7656C24.1438 31.5506 24.7706 33.0806 26.0244 34.3556C27.2994 35.6306 28.8294 36.2681 30.6144 36.2681C30.6532 36.2681 30.6919 36.2678 30.7305 36.2672C30.9333 37.2944 31.3469 38.6942 32.1906 40.1306Z" fill="black"/>
<path d="M54 36C59.5228 36 64 31.5228 64 26C64 20.4772 59.5228 16 54 16C48.4772 16 44 20.4772 44 26C44 31.5228 48.4772 36 54 36Z" fill="#647DFF"/>
<path fill-rule="evenodd" clip-rule="evenodd" d="M57.724 25.3378V26.5182H54.5864V29.856H53.4376V26.5182H50.3V25.3378H53.4376V22H54.5864V25.3378H57.724Z" fill="white"/>
</svg>
