<svg width="24" height="24" viewBox="0 0 24 24" fill="none" xmlns="http://www.w3.org/2000/svg">
<path d="M23.309 14.5471C25.047 6.73713 18.205 -0.35787 10.17 1.00413C5.808 -1.70287 0 1.35613 0 6.54613C0 7.75313 0.333 8.88313 0.912 9.85713C-0.703 17.6851 6.195 24.6781 14.223 23.2231C19.898 26.2241 26.169 20.2391 23.309 14.5471ZM15.671 19.2571C13.563 20.1241 10.094 20.1291 7.995 19.0301C5.002 17.4341 4.47 13.8411 7.052 13.8411C8.998 13.8411 8.382 16.1101 10.347 17.0351C11.249 17.4521 13.188 17.4951 14.315 16.7351C15.428 15.9901 15.326 14.8181 14.721 14.2581C13.118 12.7781 8.531 13.3661 6.434 10.7751C5.523 9.65113 5.351 7.66813 6.471 6.23013C8.423 3.71813 14.151 3.56513 16.614 5.46213C18.888 7.22213 18.274 9.55813 16.439 9.55813C14.232 9.55813 15.392 6.67013 11.829 6.67013C9.246 6.67013 8.23 8.50713 10.049 9.40113C12.515 10.6261 18.799 10.2171 18.799 15.0041C18.794 16.9961 17.573 18.4811 15.671 19.2571Z" fill="black"/>
</svg>
