<svg width="70" height="70" viewBox="0 0 70 70" fill="none" xmlns="http://www.w3.org/2000/svg">
<path fill-rule="evenodd" clip-rule="evenodd" d="M35 70C54.33 70 70 54.33 70 35C70 15.67 54.33 0 35 0C15.67 0 0 15.67 0 35C0 54.33 15.67 70 35 70Z" fill="black"/>
<path d="M41.0557 40.82C40.4397 41.94 39.4597 42.416 38.5077 42.416H32.7117C32.7117 42.416 35.1757 38.86 36.5757 37.096C38.7877 34.296 39.9637 32.56 39.9637 30.712C39.9637 28.164 37.9757 26.036 35.1757 26.036C35.1757 26.036 30.3877 26.064 29.7437 31.3L30.1917 31.412C32.3197 26.988 40.0757 29.844 36.0717 36.704L29.6877 46H40.1037L41.5317 40.82H41.0557Z" fill="#FBFBFB"/>
</svg>
