<svg width="70" height="70" viewBox="0 0 70 70" fill="none" xmlns="http://www.w3.org/2000/svg">
<path fill-rule="evenodd" clip-rule="evenodd" d="M35 70C54.33 70 70 54.33 70 35C70 15.67 54.33 0 35 0C15.67 0 0 15.67 0 35C0 54.33 15.67 70 35 70Z" fill="black"/>
<path d="M42.1238 40.512V38.552H39.2118V26.288L37.8958 26.036L28.6558 40.036V40.512H35.1518V42.08C35.1518 45.412 33.9478 45.524 32.7718 45.524V46H41.5918V45.524C40.4158 45.524 39.2118 45.468 39.2118 41.94V40.512H42.1238ZM35.1518 38.552H31.5958C31.0358 38.552 30.1958 38.524 31.2318 37.068L35.1518 31.132V38.552Z" fill="#FBFBFB"/>
</svg>
