<svg width="70" height="70" viewBox="0 0 70 70" fill="none" xmlns="http://www.w3.org/2000/svg">
<path fill-rule="evenodd" clip-rule="evenodd" d="M35 70C54.33 70 70 54.33 70 35C70 15.67 54.33 0 35 0C15.67 0 0 15.67 0 35C0 54.33 15.67 70 35 70Z" fill="black"/>
<path d="M41.4595 39.504C41.3475 37.796 39.9195 36.032 37.4555 34.8C42.1875 30.236 38.6315 26.036 34.6835 26.036C34.6835 26.036 30.3155 26.036 29.6995 30.572L30.1475 30.684C31.2115 28.5 34.0115 28.36 35.2715 29.396C36.8675 30.684 37.4555 34.352 32.7795 35.808V36.284C37.1195 36.872 37.9875 39.924 38.0995 40.932C38.3235 43.228 37.7355 45.776 34.8795 45.776C32.6395 45.776 32.1915 45.02 32.4715 44.908C32.8915 44.656 33.2275 44.264 33.3675 43.676C33.6475 42.5 32.9195 41.352 31.7435 41.072C30.5955 40.792 29.4195 41.52 29.1675 42.696C28.9715 43.508 29.2795 44.432 29.8675 44.852C31.1835 45.832 32.7515 46.252 34.9075 46.252C37.7635 46.252 41.7675 44.516 41.4595 39.504Z" fill="#FBFBFB"/>
</svg>
