<svg width="22" height="19" viewBox="0 0 22 19" fill="none" xmlns="http://www.w3.org/2000/svg">
<path d="M1.73047 8.29688H17.4258L11.5195 2.60938C11.2643 2.3724 11.1367 2.08984 11.1367 1.76172C11.1367 1.43359 11.2461 1.15104 11.4648 0.914062C11.7018 0.658854 11.9844 0.53125 12.3125 0.53125C12.6406 0.53125 12.9323 0.640625 13.1875 0.859375L21.2266 8.625C21.4818 8.86198 21.6094 9.15365 21.6094 9.5C21.6094 9.82812 21.4818 10.1107 21.2266 10.3477L13.1328 18.1406C12.8958 18.3594 12.6224 18.4688 12.3125 18.4688C11.9661 18.4688 11.6745 18.3411 11.4375 18.0859C11.2005 17.849 11.082 17.5664 11.082 17.2383C11.1003 16.9102 11.2279 16.6276 11.4648 16.3906L17.3711 10.7031H1.70312C1.39323 10.7031 1.11979 10.5938 0.882812 10.375C0.645833 10.1562 0.518229 9.89193 0.5 9.58203C0.481771 9.23568 0.591146 8.9349 0.828125 8.67969C1.08333 8.42448 1.38411 8.29688 1.73047 8.29688Z" fill="white"/>
</svg>
