<svg width="238" height="238" viewBox="0 0 238 238" fill="none" xmlns="http://www.w3.org/2000/svg">
<g opacity="0.172828">
<path fill-rule="evenodd" clip-rule="evenodd" d="M13.7308 6.86538C13.7308 10.657 10.657 13.7308 6.86538 13.7308C3.07374 13.7308 0 10.657 0 6.86538C0 3.07374 3.07374 0 6.86538 0C10.657 0 13.7308 3.07374 13.7308 6.86538ZM13.7308 38.9038C13.7308 42.6955 10.657 45.7692 6.86538 45.7692C3.07374 45.7692 0 42.6955 0 38.9038C0 35.1122 3.07374 32.0385 6.86538 32.0385C10.657 32.0385 13.7308 35.1122 13.7308 38.9038ZM6.86538 77.8077C10.657 77.8077 13.7308 74.7339 13.7308 70.9423C13.7308 67.1507 10.657 64.0769 6.86538 64.0769C3.07374 64.0769 0 67.1507 0 70.9423C0 74.7339 3.07374 77.8077 6.86538 77.8077ZM13.7308 102.981C13.7308 106.772 10.657 109.846 6.86538 109.846C3.07374 109.846 0 106.772 0 102.981C0 99.1891 3.07374 96.1154 6.86538 96.1154C10.657 96.1154 13.7308 99.1891 13.7308 102.981ZM6.86538 141.885C10.657 141.885 13.7308 138.811 13.7308 135.019C13.7308 131.228 10.657 128.154 6.86538 128.154C3.07374 128.154 0 131.228 0 135.019C0 138.811 3.07374 141.885 6.86538 141.885ZM13.7308 167.058C13.7308 170.849 10.657 173.923 6.86538 173.923C3.07374 173.923 0 170.849 0 167.058C0 163.266 3.07374 160.192 6.86538 160.192C10.657 160.192 13.7308 163.266 13.7308 167.058ZM6.86538 205.962C10.657 205.962 13.7308 202.888 13.7308 199.096C13.7308 195.305 10.657 192.231 6.86538 192.231C3.07374 192.231 0 195.305 0 199.096C0 202.888 3.07374 205.962 6.86538 205.962ZM13.7308 231.135C13.7308 234.926 10.657 238 6.86538 238C3.07374 238 0 234.926 0 231.135C0 227.343 3.07374 224.269 6.86538 224.269C10.657 224.269 13.7308 227.343 13.7308 231.135ZM38.9038 13.7308C42.6955 13.7308 45.7692 10.657 45.7692 6.86538C45.7692 3.07374 42.6955 0 38.9038 0C35.1122 0 32.0385 3.07374 32.0385 6.86538C32.0385 10.657 35.1122 13.7308 38.9038 13.7308ZM45.7692 38.9038C45.7692 42.6955 42.6955 45.7692 38.9038 45.7692C35.1122 45.7692 32.0385 42.6955 32.0385 38.9038C32.0385 35.1122 35.1122 32.0385 38.9038 32.0385C42.6955 32.0385 45.7692 35.1122 45.7692 38.9038ZM38.9038 77.8077C42.6955 77.8077 45.7692 74.7339 45.7692 70.9423C45.7692 67.1507 42.6955 64.0769 38.9038 64.0769C35.1122 64.0769 32.0385 67.1507 32.0385 70.9423C32.0385 74.7339 35.1122 77.8077 38.9038 77.8077ZM45.7692 102.981C45.7692 106.772 42.6955 109.846 38.9038 109.846C35.1122 109.846 32.0385 106.772 32.0385 102.981C32.0385 99.1891 35.1122 96.1154 38.9038 96.1154C42.6955 96.1154 45.7692 99.1891 45.7692 102.981ZM38.9038 141.885C42.6955 141.885 45.7692 138.811 45.7692 135.019C45.7692 131.228 42.6955 128.154 38.9038 128.154C35.1122 128.154 32.0385 131.228 32.0385 135.019C32.0385 138.811 35.1122 141.885 38.9038 141.885ZM45.7692 167.058C45.7692 170.849 42.6955 173.923 38.9038 173.923C35.1122 173.923 32.0385 170.849 32.0385 167.058C32.0385 163.266 35.1122 160.192 38.9038 160.192C42.6955 160.192 45.7692 163.266 45.7692 167.058ZM38.9038 205.962C42.6955 205.962 45.7692 202.888 45.7692 199.096C45.7692 195.305 42.6955 192.231 38.9038 192.231C35.1122 192.231 32.0385 195.305 32.0385 199.096C32.0385 202.888 35.1122 205.962 38.9038 205.962ZM45.7692 231.135C45.7692 234.926 42.6955 238 38.9038 238C35.1122 238 32.0385 234.926 32.0385 231.135C32.0385 227.343 35.1122 224.269 38.9038 224.269C42.6955 224.269 45.7692 227.343 45.7692 231.135ZM70.9423 13.7308C74.7339 13.7308 77.8077 10.657 77.8077 6.86538C77.8077 3.07374 74.7339 0 70.9423 0C67.1507 0 64.0769 3.07374 64.0769 6.86538C64.0769 10.657 67.1507 13.7308 70.9423 13.7308ZM77.8077 38.9038C77.8077 42.6955 74.7339 45.7692 70.9423 45.7692C67.1507 45.7692 64.0769 42.6955 64.0769 38.9038C64.0769 35.1122 67.1507 32.0385 70.9423 32.0385C74.7339 32.0385 77.8077 35.1122 77.8077 38.9038ZM70.9423 77.8077C74.7339 77.8077 77.8077 74.7339 77.8077 70.9423C77.8077 67.1507 74.7339 64.0769 70.9423 64.0769C67.1507 64.0769 64.0769 67.1507 64.0769 70.9423C64.0769 74.7339 67.1507 77.8077 70.9423 77.8077ZM77.8077 102.981C77.8077 106.772 74.7339 109.846 70.9423 109.846C67.1507 109.846 64.0769 106.772 64.0769 102.981C64.0769 99.1891 67.1507 96.1154 70.9423 96.1154C74.7339 96.1154 77.8077 99.1891 77.8077 102.981ZM70.9423 141.885C74.7339 141.885 77.8077 138.811 77.8077 135.019C77.8077 131.228 74.7339 128.154 70.9423 128.154C67.1507 128.154 64.0769 131.228 64.0769 135.019C64.0769 138.811 67.1507 141.885 70.9423 141.885ZM77.8077 167.058C77.8077 170.849 74.7339 173.923 70.9423 173.923C67.1507 173.923 64.0769 170.849 64.0769 167.058C64.0769 163.266 67.1507 160.192 70.9423 160.192C74.7339 160.192 77.8077 163.266 77.8077 167.058ZM70.9423 205.962C74.7339 205.962 77.8077 202.888 77.8077 199.096C77.8077 195.305 74.7339 192.231 70.9423 192.231C67.1507 192.231 64.0769 195.305 64.0769 199.096C64.0769 202.888 67.1507 205.962 70.9423 205.962ZM77.8077 231.135C77.8077 234.926 74.7339 238 70.9423 238C67.1507 238 64.0769 234.926 64.0769 231.135C64.0769 227.343 67.1507 224.269 70.9423 224.269C74.7339 224.269 77.8077 227.343 77.8077 231.135ZM102.981 13.7308C106.772 13.7308 109.846 10.657 109.846 6.86538C109.846 3.07374 106.772 0 102.981 0C99.1891 0 96.1154 3.07374 96.1154 6.86538C96.1154 10.657 99.1891 13.7308 102.981 13.7308ZM109.846 38.9038C109.846 42.6955 106.772 45.7692 102.981 45.7692C99.1891 45.7692 96.1154 42.6955 96.1154 38.9038C96.1154 35.1122 99.1891 32.0385 102.981 32.0385C106.772 32.0385 109.846 35.1122 109.846 38.9038ZM102.981 77.8077C106.772 77.8077 109.846 74.7339 109.846 70.9423C109.846 67.1507 106.772 64.0769 102.981 64.0769C99.1891 64.0769 96.1154 67.1507 96.1154 70.9423C96.1154 74.7339 99.1891 77.8077 102.981 77.8077ZM109.846 102.981C109.846 106.772 106.772 109.846 102.981 109.846C99.1891 109.846 96.1154 106.772 96.1154 102.981C96.1154 99.1891 99.1891 96.1154 102.981 96.1154C106.772 96.1154 109.846 99.1891 109.846 102.981ZM102.981 141.885C106.772 141.885 109.846 138.811 109.846 135.019C109.846 131.228 106.772 128.154 102.981 128.154C99.1891 128.154 96.1154 131.228 96.1154 135.019C96.1154 138.811 99.1891 141.885 102.981 141.885ZM109.846 167.058C109.846 170.849 106.772 173.923 102.981 173.923C99.1891 173.923 96.1154 170.849 96.1154 167.058C96.1154 163.266 99.1891 160.192 102.981 160.192C106.772 160.192 109.846 163.266 109.846 167.058ZM102.981 205.962C106.772 205.962 109.846 202.888 109.846 199.096C109.846 195.305 106.772 192.231 102.981 192.231C99.1891 192.231 96.1154 195.305 96.1154 199.096C96.1154 202.888 99.1891 205.962 102.981 205.962ZM109.846 231.135C109.846 234.926 106.772 238 102.981 238C99.1891 238 96.1154 234.926 96.1154 231.135C96.1154 227.343 99.1891 224.269 102.981 224.269C106.772 224.269 109.846 227.343 109.846 231.135ZM135.019 13.7308C138.811 13.7308 141.885 10.657 141.885 6.86538C141.885 3.07374 138.811 0 135.019 0C131.228 0 128.154 3.07374 128.154 6.86538C128.154 10.657 131.228 13.7308 135.019 13.7308ZM141.885 38.9038C141.885 42.6955 138.811 45.7692 135.019 45.7692C131.228 45.7692 128.154 42.6955 128.154 38.9038C128.154 35.1122 131.228 32.0385 135.019 32.0385C138.811 32.0385 141.885 35.1122 141.885 38.9038ZM135.019 77.8077C138.811 77.8077 141.885 74.7339 141.885 70.9423C141.885 67.1507 138.811 64.0769 135.019 64.0769C131.228 64.0769 128.154 67.1507 128.154 70.9423C128.154 74.7339 131.228 77.8077 135.019 77.8077ZM141.885 102.981C141.885 106.772 138.811 109.846 135.019 109.846C131.228 109.846 128.154 106.772 128.154 102.981C128.154 99.1891 131.228 96.1154 135.019 96.1154C138.811 96.1154 141.885 99.1891 141.885 102.981ZM135.019 141.885C138.811 141.885 141.885 138.811 141.885 135.019C141.885 131.228 138.811 128.154 135.019 128.154C131.228 128.154 128.154 131.228 128.154 135.019C128.154 138.811 131.228 141.885 135.019 141.885ZM141.885 167.058C141.885 170.849 138.811 173.923 135.019 173.923C131.228 173.923 128.154 170.849 128.154 167.058C128.154 163.266 131.228 160.192 135.019 160.192C138.811 160.192 141.885 163.266 141.885 167.058ZM135.019 205.962C138.811 205.962 141.885 202.888 141.885 199.096C141.885 195.305 138.811 192.231 135.019 192.231C131.228 192.231 128.154 195.305 128.154 199.096C128.154 202.888 131.228 205.962 135.019 205.962ZM141.885 231.135C141.885 234.926 138.811 238 135.019 238C131.228 238 128.154 234.926 128.154 231.135C128.154 227.343 131.228 224.269 135.019 224.269C138.811 224.269 141.885 227.343 141.885 231.135ZM167.058 13.7308C170.849 13.7308 173.923 10.657 173.923 6.86538C173.923 3.07374 170.849 0 167.058 0C163.266 0 160.192 3.07374 160.192 6.86538C160.192 10.657 163.266 13.7308 167.058 13.7308ZM173.923 38.9038C173.923 42.6955 170.849 45.7692 167.058 45.7692C163.266 45.7692 160.192 42.6955 160.192 38.9038C160.192 35.1122 163.266 32.0385 167.058 32.0385C170.849 32.0385 173.923 35.1122 173.923 38.9038ZM167.058 77.8077C170.849 77.8077 173.923 74.7339 173.923 70.9423C173.923 67.1507 170.849 64.0769 167.058 64.0769C163.266 64.0769 160.192 67.1507 160.192 70.9423C160.192 74.7339 163.266 77.8077 167.058 77.8077ZM173.923 102.981C173.923 106.772 170.849 109.846 167.058 109.846C163.266 109.846 160.192 106.772 160.192 102.981C160.192 99.1891 163.266 96.1154 167.058 96.1154C170.849 96.1154 173.923 99.1891 173.923 102.981ZM167.058 141.885C170.849 141.885 173.923 138.811 173.923 135.019C173.923 131.228 170.849 128.154 167.058 128.154C163.266 128.154 160.192 131.228 160.192 135.019C160.192 138.811 163.266 141.885 167.058 141.885ZM173.923 167.058C173.923 170.849 170.849 173.923 167.058 173.923C163.266 173.923 160.192 170.849 160.192 167.058C160.192 163.266 163.266 160.192 167.058 160.192C170.849 160.192 173.923 163.266 173.923 167.058ZM167.058 205.962C170.849 205.962 173.923 202.888 173.923 199.096C173.923 195.305 170.849 192.231 167.058 192.231C163.266 192.231 160.192 195.305 160.192 199.096C160.192 202.888 163.266 205.962 167.058 205.962ZM173.923 231.135C173.923 234.926 170.849 238 167.058 238C163.266 238 160.192 234.926 160.192 231.135C160.192 227.343 163.266 224.269 167.058 224.269C170.849 224.269 173.923 227.343 173.923 231.135ZM199.096 13.7308C202.888 13.7308 205.962 10.657 205.962 6.86538C205.962 3.07374 202.888 0 199.096 0C195.305 0 192.231 3.07374 192.231 6.86538C192.231 10.657 195.305 13.7308 199.096 13.7308ZM205.962 38.9038C205.962 42.6955 202.888 45.7692 199.096 45.7692C195.305 45.7692 192.231 42.6955 192.231 38.9038C192.231 35.1122 195.305 32.0385 199.096 32.0385C202.888 32.0385 205.962 35.1122 205.962 38.9038ZM199.096 77.8077C202.888 77.8077 205.962 74.7339 205.962 70.9423C205.962 67.1507 202.888 64.0769 199.096 64.0769C195.305 64.0769 192.231 67.1507 192.231 70.9423C192.231 74.7339 195.305 77.8077 199.096 77.8077ZM205.962 102.981C205.962 106.772 202.888 109.846 199.096 109.846C195.305 109.846 192.231 106.772 192.231 102.981C192.231 99.1891 195.305 96.1154 199.096 96.1154C202.888 96.1154 205.962 99.1891 205.962 102.981ZM199.096 141.885C202.888 141.885 205.962 138.811 205.962 135.019C205.962 131.228 202.888 128.154 199.096 128.154C195.305 128.154 192.231 131.228 192.231 135.019C192.231 138.811 195.305 141.885 199.096 141.885ZM205.962 167.058C205.962 170.849 202.888 173.923 199.096 173.923C195.305 173.923 192.231 170.849 192.231 167.058C192.231 163.266 195.305 160.192 199.096 160.192C202.888 160.192 205.962 163.266 205.962 167.058ZM199.096 205.962C202.888 205.962 205.962 202.888 205.962 199.096C205.962 195.305 202.888 192.231 199.096 192.231C195.305 192.231 192.231 195.305 192.231 199.096C192.231 202.888 195.305 205.962 199.096 205.962ZM205.962 231.135C205.962 234.926 202.888 238 199.096 238C195.305 238 192.231 234.926 192.231 231.135C192.231 227.343 195.305 224.269 199.096 224.269C202.888 224.269 205.962 227.343 205.962 231.135ZM231.135 13.7308C234.926 13.7308 238 10.657 238 6.86538C238 3.07374 234.926 0 231.135 0C227.343 0 224.269 3.07374 224.269 6.86538C224.269 10.657 227.343 13.7308 231.135 13.7308ZM238 38.9038C238 42.6955 234.926 45.7692 231.135 45.7692C227.343 45.7692 224.269 42.6955 224.269 38.9038C224.269 35.1122 227.343 32.0385 231.135 32.0385C234.926 32.0385 238 35.1122 238 38.9038ZM231.135 77.8077C234.926 77.8077 238 74.7339 238 70.9423C238 67.1507 234.926 64.0769 231.135 64.0769C227.343 64.0769 224.269 67.1507 224.269 70.9423C224.269 74.7339 227.343 77.8077 231.135 77.8077ZM238 102.981C238 106.772 234.926 109.846 231.135 109.846C227.343 109.846 224.269 106.772 224.269 102.981C224.269 99.1891 227.343 96.1154 231.135 96.1154C234.926 96.1154 238 99.1891 238 102.981ZM231.135 141.885C234.926 141.885 238 138.811 238 135.019C238 131.228 234.926 128.154 231.135 128.154C227.343 128.154 224.269 131.228 224.269 135.019C224.269 138.811 227.343 141.885 231.135 141.885ZM238 167.058C238 170.849 234.926 173.923 231.135 173.923C227.343 173.923 224.269 170.849 224.269 167.058C224.269 163.266 227.343 160.192 231.135 160.192C234.926 160.192 238 163.266 238 167.058ZM231.135 205.962C234.926 205.962 238 202.888 238 199.096C238 195.305 234.926 192.231 231.135 192.231C227.343 192.231 224.269 195.305 224.269 199.096C224.269 202.888 227.343 205.962 231.135 205.962ZM238 231.135C238 234.926 234.926 238 231.135 238C227.343 238 224.269 234.926 224.269 231.135C224.269 227.343 227.343 224.269 231.135 224.269C234.926 224.269 238 227.343 238 231.135Z" fill="#414B5A"/>
</g>
</svg>
