<svg width="72" height="72" viewBox="0 0 72 72" fill="none" xmlns="http://www.w3.org/2000/svg">
<path opacity="0.0381557" d="M36 72C55.8823 72 72 55.8823 72 36C72 16.1177 55.8823 0 36 0C16.1177 0 0 16.1177 0 36C0 55.8823 16.1177 72 36 72Z" fill="black"/>
<path fill-rule="evenodd" clip-rule="evenodd" d="M52.4603 23.1122C51.6114 22.672 50.6882 23.56 51.095 24.4254L52.3578 27.1114L51.095 29.7974C50.6882 30.6628 51.6114 31.5508 52.4603 31.1106L58.4603 27.9992C59.1799 27.626 59.1799 26.5968 58.4603 26.2237L52.4603 23.1122ZM53.4628 27.1114L52 24L58 27.1114L52 30.2229L53.4628 27.1114Z" fill="white"/>
<path fill-rule="evenodd" clip-rule="evenodd" d="M41.01 26.5159C41.0034 26.3448 41 26.1728 41 26C41 25.1821 41.0755 24.3819 41.22 23.6059C39.1878 22.5732 36.8946 22 34.4948 22C27.6661 22 21.8169 26.629 20.226 33.0276C15.6121 33.4712 12 37.3118 12 41.9924C12 46.9186 16.0044 50.9233 20.9773 50.9998L20.9976 51H42.3686H49.5414C55.4974 51 60.3333 46.2338 60.3333 40.3447C60.3333 39.3797 60.2035 38.4449 59.9602 37.5563C59.1785 37.9602 58.3506 38.2872 57.4865 38.5272C57.6242 39.1113 57.697 39.7197 57.697 40.3447C57.697 44.7691 54.0498 48.3636 49.5414 48.3636H21.0082C17.471 48.3041 14.6364 45.4662 14.6364 41.9924C14.6364 38.478 17.535 35.6212 21.1201 35.6212C21.1717 35.6212 21.2231 35.6218 21.2745 35.623L22.4132 35.649L22.6042 34.5261C23.5685 28.8557 28.5796 24.6364 34.4948 24.6364C36.8686 24.6364 39.1138 25.3174 41.01 26.5159Z" fill="black"/>
<path d="M54 36C59.5228 36 64 31.5228 64 26C64 20.4772 59.5228 16 54 16C48.4772 16 44 20.4772 44 26C44 31.5228 48.4772 36 54 36Z" fill="#647DFF"/>
<path fill-rule="evenodd" clip-rule="evenodd" d="M53.4446 21.2831L52.302 23.6561L52.2138 23.8368L49.4276 24.2475C49.021 24.3075 48.8564 24.8051 49.147 25.0957L51.1745 27.1232L51.1452 27.3118L50.6971 29.9414C50.6273 30.3512 51.059 30.6623 51.4256 30.4664L53.8951 29.147L56.3645 30.4664C56.7312 30.6623 57.1629 30.3512 57.0931 29.9414L56.6438 27.3047L56.6156 27.1233L58.6432 25.0957C58.9338 24.8051 58.769 24.3073 58.3623 24.2475L55.5689 23.837L54.346 21.284C54.1648 20.9058 53.6265 20.9052 53.4446 21.2831ZM52.9967 24.5124L53.2018 24.0925L53.8939 22.655L54.782 24.509C54.8539 24.659 54.9957 24.7635 55.1603 24.7877L57.2325 25.0922L55.729 26.5957C55.6162 26.7085 55.564 26.8684 55.5885 27.0261L55.6569 27.4655L55.9359 29.1036L54.1307 28.1391C53.9835 28.0604 53.8067 28.0604 53.6595 28.1391L51.8542 29.1036L52.1321 27.4726L52.2016 27.0261C52.2262 26.8684 52.174 26.7085 52.0611 26.5957L50.5573 25.0918L52.6203 24.7876C52.7835 24.7636 52.9243 24.6606 52.9967 24.5124Z" fill="white"/>
</svg>
