<svg width="72" height="72" viewBox="0 0 72 72" fill="none" xmlns="http://www.w3.org/2000/svg">
<path opacity="0.0381557" d="M36 72C55.8823 72 72 55.8823 72 36C72 16.1177 55.8823 0 36 0C16.1177 0 0 16.1177 0 36C0 55.8823 16.1177 72 36 72Z" fill="black"/>
<path fill-rule="evenodd" clip-rule="evenodd" d="M52.4604 23.1122C51.6115 22.672 50.6882 23.56 51.095 24.4254L52.3578 27.1114L51.095 29.7974C50.6882 30.6628 51.6115 31.5508 52.4604 31.1106L58.4604 27.9992C59.1799 27.626 59.1799 26.5968 58.4604 26.2237L52.4604 23.1122ZM53.4628 27.1114L52 24L58 27.1114L52 30.2229L53.4628 27.1114Z" fill="white"/>
<path d="M52 24L53.4628 27.1114L52 30.2229L58 27.1114L52 24ZM51.095 24.4254C50.6882 23.56 51.6115 22.672 52.4604 23.1122L58.4604 26.2237C59.1799 26.5968 59.1799 27.626 58.4604 27.9992L52.4604 31.1106C51.6115 31.5508 50.6882 30.6628 51.095 29.7974L52.3578 27.1114L51.095 24.4254Z" fill="white"/>
<path d="M40.6689 14C42.9185 14.0278 44.9712 14.9261 46.4946 16.3855C45.7796 16.8906 45.1183 17.4671 44.5205 18.104C43.4879 17.1847 42.1397 16.6211 40.6689 16.5882C39.5865 16.5942 38.5266 16.8988 37.6048 17.4692V35.4262C38.3843 34.9599 39.2733 34.7112 40.1804 34.706C43.0239 34.7093 45.3282 37.0249 45.3314 39.8825H42.7559C42.7559 38.453 41.6029 37.2943 40.1804 37.2943C38.7579 37.2943 37.6048 38.453 37.6048 39.8825V54.531C38.5266 55.1013 39.5865 55.4061 40.6689 55.4119C44.1489 55.3325 46.9093 52.4389 46.8412 48.9413C46.8331 48.2868 47.2721 47.7119 47.9032 47.5505C50.9375 46.9723 53.1152 44.2798 53.058 41.1766C53.0587 40.7652 53.0213 40.3573 52.9474 39.9577C53.2939 39.9858 53.6453 40 54 40C54.5229 40 55.0385 39.9691 55.5452 39.9091C55.6048 40.3266 55.6339 40.7504 55.6335 41.1765C55.6794 45.1404 53.1358 48.6665 49.3726 49.8555C48.983 54.4137 45.2208 57.934 40.6689 58C39.1363 58.0013 37.6322 57.5844 36.3171 56.7937C35.0019 57.5844 33.4978 58.0013 31.9652 58C27.5545 57.9455 23.9008 54.5445 23.5093 50.1292C19.4567 49.4095 17.0006 45.1493 17.0006 41.1765C16.9992 39.3312 17.5487 37.528 18.5783 36C17.5487 34.472 16.9992 32.6688 17.0006 30.8235C16.9547 26.8597 19.4984 23.3335 23.2616 22.1445C23.6511 17.5863 27.4133 14.066 31.9652 14C33.4978 13.9987 35.0019 14.4156 36.3171 15.2063C37.6322 14.4156 39.1363 13.9987 40.6689 14ZM31.9652 16.5881C28.4852 16.6675 25.7249 19.5612 25.793 23.0587C25.801 23.7132 25.3621 24.2881 24.7309 24.4495C21.6966 25.0277 19.519 27.7202 19.5761 30.8234C19.5734 32.4125 20.1402 33.9495 21.1726 35.1532C21.592 35.6389 21.592 36.3609 21.1726 36.8467C20.1402 38.0504 19.5734 39.5873 19.5761 41.1765C19.5761 44.3011 21.6461 47.6471 24.7272 47.6471C26.1497 47.6471 27.3027 46.4883 27.3027 45.0588C27.3027 43.6293 26.1497 42.4706 24.7272 42.4706V39.8824C27.0413 39.8764 29.0739 41.4259 29.6917 43.667C30.4494 46.4151 28.8468 49.2599 26.1122 50.0211C26.4419 53.0388 28.9449 55.3443 31.9652 55.4118C33.0476 55.4058 34.1076 55.1012 35.0293 54.5308V30.1034C34.2499 30.5697 33.3608 30.8184 32.4538 30.8235C29.6102 30.8203 27.3059 28.5046 27.3027 25.6471H29.8783C29.8783 27.0766 31.0313 28.2353 32.4538 28.2353C33.8763 28.2353 35.0293 27.0766 35.0293 25.6471V17.469C34.1076 16.8987 33.0476 16.5939 31.9652 16.5881Z" fill="black"/>
<path d="M54 37C59.5228 37 64 32.5228 64 27C64 21.4772 59.5228 17 54 17C48.4772 17 44 21.4772 44 27C44 32.5228 48.4772 37 54 37Z" fill="#647DFF"/>
<path d="M51.7854 27.993C51.7098 28.1835 51.5256 28.3086 51.3206 28.3086H48.0724C47.7962 28.3086 47.5724 28.0848 47.5724 27.8086C47.5724 27.5325 47.7962 27.3086 48.0724 27.3086H50.981L52.7644 22.8114C52.9405 22.3674 53.5793 22.3995 53.7101 22.8589L55.5722 29.4L56.0636 27.6719C56.1247 27.4569 56.321 27.3086 56.5445 27.3086H61.0474C61.3235 27.3086 61.5474 27.5325 61.5474 27.8086C61.5474 28.0848 61.3235 28.3086 61.0474 28.3086H56.9222L56.0535 31.3639C55.9158 31.8482 55.2295 31.8483 55.0917 31.3641L53.1513 24.5484L51.7854 27.993Z" fill="white"/>
</svg>
