<svg width="72" height="72" viewBox="0 0 72 72" fill="none" xmlns="http://www.w3.org/2000/svg">
<path opacity="0.0381557" d="M36 72C55.8823 72 72 55.8823 72 36C72 16.1177 55.8823 0 36 0C16.1177 0 0 16.1177 0 36C0 55.8823 16.1177 72 36 72Z" fill="black"/>
<path fill-rule="evenodd" clip-rule="evenodd" d="M52.4604 23.1122C51.6115 22.672 50.6882 23.56 51.095 24.4254L52.3578 27.1114L51.095 29.7974C50.6882 30.6628 51.6115 31.5508 52.4604 31.1106L58.4604 27.9992C59.1799 27.626 59.1799 26.5968 58.4604 26.2237L52.4604 23.1122ZM53.4628 27.1114L52 24L58 27.1114L52 30.2229L53.4628 27.1114Z" fill="white"/>
<path d="M51.7854 27.993C51.7098 28.1835 51.5256 28.3087 51.3206 28.3087H48.0724C47.7962 28.3087 47.5724 28.0848 47.5724 27.8087C47.5724 27.5325 47.7962 27.3087 48.0724 27.3087H50.981L52.7644 22.8114C52.9405 22.3674 53.5793 22.3995 53.7101 22.8589L55.5722 29.4L56.0636 27.6719C56.1247 27.4569 56.321 27.3087 56.5445 27.3087H61.0474C61.3235 27.3087 61.5474 27.5325 61.5474 27.8087C61.5474 28.0848 61.3235 28.3087 61.0474 28.3087H56.9222L56.0535 31.3639C55.9158 31.8482 55.2295 31.8483 55.0917 31.3641L53.1513 24.5484L51.7854 27.993Z" fill="white"/>
<path fill-rule="evenodd" clip-rule="evenodd" d="M44.1891 17.4706C45.0216 16.5138 45.9917 15.68 47.0686 15H26.1123C25.0078 15 24.1123 15.8954 24.1123 17V18.4819H23.0294C20.2517 18.4819 18 20.7337 18 23.5113C18 27.38 20.9108 30.5689 24.6618 31.0074C25.8997 35.0101 29.1176 38.143 33.1711 39.2618V46.2941H30.5314C28.3223 46.2941 26.5314 48.085 26.5314 50.2941V57H46.3476V50.2941C46.3476 48.085 44.5568 46.2941 42.3476 46.2941H39.7594V39.2618C41.9745 38.6504 43.9402 37.4375 45.4694 35.8099C44.846 35.2673 44.2748 34.6663 43.7643 34.0153C41.9571 35.994 39.3562 37.2353 36.4653 37.2353C31.0074 37.2353 26.5829 32.8108 26.5829 27.3529V18.4706C26.5829 17.9183 27.0306 17.4706 27.5829 17.4706H44.1891ZM23.0294 20.9525H24.1123V27.3529C24.1123 27.7039 24.127 28.0515 24.1557 28.3951C22.0284 27.79 20.4706 25.8326 20.4706 23.5113C20.4706 22.0981 21.6162 20.9525 23.0294 20.9525ZM42.877 48.7647H30.002C29.4497 48.7647 29.002 49.2124 29.002 49.7647V54.5294H43.877V49.7647C43.877 49.2124 43.4293 48.7647 42.877 48.7647ZM37.2888 46.2941H35.6417V39.7059H37.2888V46.2941Z" fill="black"/>
<path d="M54 36C59.5228 36 64 31.5228 64 26C64 20.4772 59.5228 16 54 16C48.4772 16 44 20.4772 44 26C44 31.5228 48.4772 36 54 36Z" fill="#647DFF"/>
<path fill-rule="evenodd" clip-rule="evenodd" d="M56.642 23.7357C56.642 24.0119 56.8659 24.2357 57.142 24.2357H57.6436L54.614 26.7387L52.6467 24.7246C52.4606 24.5341 52.1577 24.5229 51.958 24.6992L47.669 28.4868C47.4621 28.6696 47.4424 28.9856 47.6252 29.1926C47.808 29.3996 48.124 29.4192 48.331 29.2364L52.2636 25.7635L54.2201 27.7666C54.4018 27.9526 54.6958 27.9683 54.8963 27.8026L58.2225 25.0545V25.3767C58.2225 25.6529 58.4464 25.8767 58.7225 25.8767C58.9987 25.8767 59.2225 25.6529 59.2225 25.3767V23.7357C59.2225 23.4596 58.9987 23.2357 58.7225 23.2357H57.142C56.8659 23.2357 56.642 23.4596 56.642 23.7357Z" fill="white"/>
</svg>
